<svg xmlns="http://www.w3.org/2000/svg" xmlns:xlink="http://www.w3.org/1999/xlink" width="56" height="52" viewBox="0 0 56 52"><defs><path id="a" d="M453 843h-50a3 3 0 0 1-3-3v-46a3 3 0 0 1 3-3h50a3 3 0 0 1 3 3v46a3 3 0 0 1-3 3zm1-49a1 1 0 0 0-1-1h-50a1 1 0 0 0-1 1v7h52zm0 9h-52v37a1 1 0 0 0 1 1h50a1 1 0 0 0 1-1zm-48-8a2 2 0 0 1 2 2 2 2 0 0 1-2 2 2 2 0 0 1-2-2c0-1.1.9-2 2-2zm6 0a2 2 0 0 1 2 2 2 2 0 0 1-2 2 2 2 0 0 1-2-2c0-1.1.9-2 2-2zm6 0a2 2 0 0 1 2 2 2 2 0 0 1-2 2 2 2 0 0 1-2-2c0-1.1.9-2 2-2zm2.29 19.29a1 1 0 0 1 1.42 0 1 1 0 0 1 0 1.42l-5.3 5.29 5.3 5.29a1 1 0 0 1 0 1.42c-.2.19-.45.29-.71.29-.26 0-.51-.1-.71-.29l-6-6a1 1 0 0 1 0-1.42zm9.82.26a1 1 0 0 1 1.34-.44 1 1 0 0 1 .44 1.34l-6 12a.98.98 0 0 1-1.34.44 1 1 0 0 1-.44-1.34zm4.18-.26a1 1 0 0 1 1.42 0l6 6a1 1 0 0 1 0 1.42l-6 6c-.2.19-.45.29-.71.29-.26 0-.51-.1-.71-.29a1 1 0 0 1 0-1.42l5.3-5.29-5.3-5.29a1 1 0 0 1 0-1.42z"/></defs><desc>Generated with Avocode.</desc><g transform="translate(-400 -791)"><use fill="#1976d2" xlink:href="#a"/></g></svg>