<svg xmlns="http://www.w3.org/2000/svg" xmlns:xlink="http://www.w3.org/1999/xlink" width="45" height="56" viewBox="0 0 45 56"><defs><path id="a" d="M59 1156a1 1 0 0 1-1 1H16a1 1 0 0 1-1-1v-54a1 1 0 0 1 1-1h32a1 1 0 0 1 .38.08c.13.05.24.12.33.21l10 10c.09.09.16.2.21.33a1 1 0 0 1 .08.38zm-42-1h40v-42h-9a1 1 0 0 1-1-1v-9H17zm38.59-44l-6.59-6.59v6.59zM42 1123H32a1 1 0 0 1-1-1 1 1 0 0 1 1-1h10a1 1 0 0 1 1 1 1 1 0 0 1-1 1zm9 7a1 1 0 0 1-1 1H24a1 1 0 0 1-1-1 1 1 0 0 1 1-1h26a1 1 0 0 1 1 1zm-27 7h26a1 1 0 0 1 1 1 1 1 0 0 1-1 1H24a1 1 0 0 1-1-1 1 1 0 0 1 1-1z"/></defs><desc>Generated with Avocode.</desc><g transform="translate(-15 -1101)"><use fill="#1976d2" xlink:href="#a"/></g></svg>