<svg xmlns="http://www.w3.org/2000/svg" xmlns:xlink="http://www.w3.org/1999/xlink" width="52" height="54" viewBox="0 0 52 54"><defs><path id="a" d="M67 817c0 .39-.22.74-.57.9l-12.7 6.1 12.7 6.1a1 1 0 0 1 .57.9c0 .39-.22.74-.57.9l-25 12a.9.9 0 0 1-.43.1.9.9 0 0 1-.43-.1l-25-12a.98.98 0 0 1-.57-.9 1 1 0 0 1 .57-.9l12.7-6.1-12.7-6.1a.98.98 0 0 1-.57-.9 1 1 0 0 1 .57-.9l12.7-6.1-12.7-6.1a.98.98 0 0 1-.57-.9 1 1 0 0 1 .57-.9l25-12a1 1 0 0 1 .86 0l25 12a1 1 0 0 1 .57.9c0 .39-.22.74-.57.9l-12.7 6.1 12.7 6.1a1 1 0 0 1 .57.9zm-48.69 14L41 841.89 63.69 831l-12.27-5.89-9.99 4.79a1 1 0 0 1-.86 0l-9.99-4.79zm45.38-28L41 792.11 18.31 803 41 813.89zm-12.27 8.11l-9.99 4.79a1 1 0 0 1-.86 0l-9.99-4.79L18.31 817 41 827.89 63.69 817zm-11.13 8.6A1.05 1.05 0 0 1 40 819c0-.26.11-.52.29-.71a1.05 1.05 0 0 1 1.42 0c.18.19.29.45.29.71 0 .26-.11.52-.29.71-.19.18-.45.29-.71.29-.26 0-.52-.11-.71-.29zm4.61.06c.5.23.71.83.47 1.33a1 1 0 0 1-1.33.47 1 1 0 0 1-.47-1.34 1 1 0 0 1 1.33-.46zm3.48 1.66c.49.24.71.84.47 1.34a1.03 1.03 0 0 1-1.34.47 1 1 0 1 1 .87-1.81zm-10.42.14a1 1 0 0 1-1.33-.47 1 1 0 0 1 .47-1.34 1.01 1.01 0 0 1 1.33.47 1 1 0 0 1-.47 1.34zm-3.47 1.66a1.02 1.02 0 0 1-1.34-.46 1 1 0 1 1 1.81-.87c.24.5.03 1.1-.47 1.33zm5.8-17.52A1.05 1.05 0 0 1 40 805c0-.26.11-.52.29-.71a1.05 1.05 0 0 1 1.42 0c.18.19.29.45.29.71 0 .26-.11.52-.29.71-.19.18-.45.29-.71.29-.26 0-.52-.11-.71-.29zm4.61.05a1 1 0 0 1-.43 1.91 1 1 0 0 1-.9-1.44c.24-.49.84-.7 1.33-.47zm3.48 1.67c.49.24.71.84.47 1.34a1 1 0 0 1-1.34.46.99.99 0 0 1-.47-1.33 1 1 0 0 1 1.34-.47zm-10.42.14c-.14.06-.29.1-.43.1a1 1 0 0 1-.9-.57 1 1 0 0 1 .46-1.33 1 1 0 0 1 1.34.46 1 1 0 0 1-.47 1.34zm-3.47 1.66a1.02 1.02 0 0 1-1.34-.46 1 1 0 1 1 1.81-.87 1 1 0 0 1-.47 1.33z"/></defs><desc>Generated with Avocode.</desc><g transform="translate(-15 -790)"><use fill="#1976d2" xlink:href="#a"/></g></svg>