<svg width="24" height="24" viewBox="0 0 24 24" fill="none" xmlns="http://www.w3.org/2000/svg">
  <path opacity="0.1" fill-rule="evenodd" clip-rule="evenodd" d="M0 12C0 5.37258 5.37258 0 12 0C18.6274 0 24 5.37258 24 12C24 18.6274 18.6274 24 12 24C5.37258 24 0 18.6274 0 12Z" fill="white"/>
  <path d="M15.4758 12.8155L15.8904 10.301H13.2968V8.6699C13.2968 7.98197 13.6592 7.31068 14.8208 7.31068H16V5.1699C16 5.1699 14.9299 5 13.9067 5C11.7706 5 10.3744 6.20427 10.3744 8.38447V10.301H8V12.8155H10.3744V18.8943C11.3427 19.0352 12.3286 19.0352 13.2968 18.8943V12.8155H15.4758Z" fill="white"/>
</svg>
