<svg width="24" height="24" viewBox="0 0 24 24" fill="none" xmlns="http://www.w3.org/2000/svg">
  <path opacity="0.1" fill-rule="evenodd" clip-rule="evenodd" d="M0 12C0 5.37258 5.37258 0 12 0C18.6274 0 24 5.37258 24 12C24 18.6274 18.6274 24 12 24C5.37258 24 0 18.6274 0 12Z" fill="white"/>
  <path fill-rule="evenodd" clip-rule="evenodd" d="M17.0004 7.87476C17.5512 8.02589 17.9849 8.4712 18.1321 9.03671C18.3996 10.0616 18.3996 12.2001 18.3996 12.2001C18.3996 12.2001 18.3996 14.3385 18.1321 15.3635C17.9849 15.929 17.5512 16.3743 17.0004 16.5255C16.0023 16.8001 11.9996 16.8001 11.9996 16.8001C11.9996 16.8001 7.99692 16.8001 6.99874 16.5255C6.44797 16.3743 6.01423 15.929 5.86703 15.3635C5.59961 14.3385 5.59961 12.2001 5.59961 12.2001C5.59961 12.2001 5.59961 10.0616 5.86703 9.03671C6.01423 8.4712 6.44797 8.02589 6.99874 7.87476C7.99692 7.6001 11.9996 7.6001 11.9996 7.6001C11.9996 7.6001 16.0023 7.6001 17.0004 7.87476ZM10.7996 10.4001V14.4001L13.9996 12.4001L10.7996 10.4001Z" fill="white"/>
</svg>
