<svg xmlns="http://www.w3.org/2000/svg" xmlns:xlink="http://www.w3.org/1999/xlink" width="60" height="49" viewBox="0 0 60 49"><defs><path id="a" d="M792 1062h-54a3 3 0 0 1-3-3v-42a3 3 0 0 1 3-3h54a3 3 0 0 1 3 3v42a3 3 0 0 1-3 3zm1-36h-8v18h8zm0 20h-9a1 1 0 0 1-1-1v-20a1 1 0 0 1 1-1h9v-7a1 1 0 0 0-1-1h-54a1 1 0 0 0-1 1v7h9a1 1 0 0 1 1 1v20a1 1 0 0 1-1 1h-9v13a1 1 0 0 0 1 1h54a1 1 0 0 0 1-1zm-55.96-20v18H745v-18zm46.96 27h-.04a1 1 0 0 1-1-1 1 1 0 0 1 1-1c.55 0 1.02.45 1.02 1s-.43 1-.98 1zm-5.15-7.47c-.04.07-.12.11-.18.17l-.02.02a.98.98 0 0 1-.27.18c-.08.04-.16.05-.23.06-.05.01-.1.04-.15.04h-26c-.12 0-.24-.03-.35-.07l-.09-.04a1.07 1.07 0 0 1-.22-.15l-.06-.06a.77.77 0 0 1-.19-.27v-.01a.9.9 0 0 1-.09-.4v-20a1 1 0 0 1 1-1h25.96a1 1 0 0 1 1 1v19.86c.03.23.02.46-.11.67zm-2.47-1.53l-5.52-11.05-6.04 8.62a.99.99 0 0 1-1.44.21l-4.26-3.4-4.92 5.62zM753 1026v16.34l5.25-6c.35-.4.96-.45 1.38-.12l4.16 3.33 6.39-9.12c.2-.29.54-.46.89-.43.36.03.67.24.83.55l5.06 10.13V1026zm4 6a2 2 0 0 1-2-2c0-1.1.9-2 2-2a2 2 0 0 1 2 2 2 2 0 0 1-2 2zm-5.04 19c.55 0 1.02.45 1.02 1s-.43 1-.98 1h-.04a1 1 0 0 1-1-1 1 1 0 0 1 1-1zm6 0c.55 0 1.02.45 1.02 1s-.43 1-.98 1h-.04a1 1 0 0 1-1-1 1 1 0 0 1 1-1zm7.04-1a2 2 0 0 1 2 2 2 2 0 0 1-2 2 2 2 0 0 1-2-2c0-1.1.9-2 2-2zm6.96 1c.55 0 1.02.45 1.02 1s-.43 1-.98 1h-.04a1 1 0 0 1-1-1 1 1 0 0 1 1-1zm6 0c.55 0 1.02.45 1.02 1s-.43 1-.98 1h-.04a1 1 0 0 1-1-1 1 1 0 0 1 1-1zm-31.96 2h-.04a1 1 0 0 1-1-1 1 1 0 0 1 1-1c.55 0 1.02.45 1.02 1s-.43 1-.98 1z"/></defs><desc>Generated with Avocode.</desc><g transform="translate(-735 -1013)"><use fill="#1976d2" xlink:href="#a"/></g></svg>